<?xml version="1.0" encoding="utf-8"?>
<!-- Generator: Adobe Illustrator 19.1.0, SVG Export Plug-In . SVG Version: 6.00 Build 0)  -->
<svg version="1.1" id="Layer_1" xmlns="http://www.w3.org/2000/svg" xmlns:xlink="http://www.w3.org/1999/xlink" x="0px" y="0px"
	 viewBox="0 0 459.2 177.8" style="enable-background:new 0 0 459.2 177.8;" xml:space="preserve">
<style type="text/css">
	.st0{fill:#FFFFFF;}
</style>
<path class="st0" d="M373.4,35.9c-11.1-18-30-33.6-52.3-33.6c-9.3,0-18.5,0.8-27.7,2.4l3.7,4.8c15,2,22.9,14.8,29.7,26.7l-34.2,48.6
	c-10.7-16.3-21.6-32.6-32.2-48.9c-13.8-21.4-32.4-33.6-52.5-33.6c-9.2,0-18.4,0.8-27.5,2.4l3.7,4.8c15,2,22.9,14.8,29.7,26.7
	l-38.3,54.4C165.4,83.5,152.4,82,140,82c-12.8,0-25.5,1.5-37.9,4.6l3.7,4.8c20.1,0.2,38.5,11.8,50,27.6l-5.6,8
	c-11.5,16.3-29.7,26.9-50.2,26.9c-39.7,0-56.6-38.7-56.6-72.6c0-28.8,16.8-58.6,49.3-58.6c16.1,0,35.1,6.6,43,21.3
	c5.3-1.4,16.3-2.3,22.8-2.4C146,15.5,119.5,0,89.7,0C38.9,0,0,38.1,0,88.1c0,48.8,37.2,89.6,87.7,89.6c34.5,0,59.5-14.7,78.6-42.6
	c12.2,20.4,28.9,41.4,55.2,41.4c29.4,0,42.5-20,57.5-41.4c3.1,4.8,6.2,9.6,9.4,14.3c10.5,15.3,26.7,27.1,46.1,27.1
	c29.4,0,42.7-19.8,57.5-41.3c12.1,18.3,24.7,39.7,49.9,39.7h17.4L373.4,35.9z M233,148.1c-18.8,0-31.3-34.4-43.2-46.2l34.9-49.6
	l43.9,66.9C260.8,130.4,248.3,148.1,233,148.1z M345.9,148.1c-8.6,0-15.6-6-20-12.8l-22.6-34.4l34.3-48.6l43.5,66.5
	C374.7,130.8,361.1,148.1,345.9,148.1z"/>
</svg>
